<?xml version="1.0" encoding="UTF-8"?><svg id="Layer_1" xmlns="http://www.w3.org/2000/svg" xmlns:xlink="http://www.w3.org/1999/xlink" viewBox="0 0 1000 1287.52"><defs><style>.cls-1{fill:#fff;}.cls-2{fill:#666;}.cls-3{filter:url(#drop-shadow-6);}</style><filter id="drop-shadow-6" filterUnits="userSpaceOnUse"><feOffset dx="7" dy="7"/><feGaussianBlur result="blur" stdDeviation="5"/><feFlood flood-color="#000" flood-opacity=".75"/><feComposite in2="blur" operator="in"/><feComposite in="SourceGraphic"/></filter></defs><g class="cls-3"><polygon class="cls-2" points="9.11 1100.41 145.2 438.34 316.93 122.77 391.45 65.39 454.93 0 576.14 71.13 657.15 151.46 679.83 260.47 767.31 415.39 802.96 525.52 838.6 656.37 906.64 874.4 990.89 1287.52 22.08 1287.52 9.11 1100.41"/><path class="cls-1" d="M301.12,437.32c88.85,50.14,140.55-139.67,198.88-85.95,58.32,53.72,93.4-25.07,116.78-35.81,23.38-10.74,69.35,76.26,86.51,46.56,17.16-29.71-23.46-101.64-23.46-101.64l-22.68-109.02-81-80.33L454.93,0l-63.48,65.39-74.52,57.38-114.58,210.56,98.78,103.99Z"/></g></svg>