<?xml version="1.0" encoding="UTF-8"?><svg id="Layer_1" xmlns="http://www.w3.org/2000/svg" xmlns:xlink="http://www.w3.org/1999/xlink" viewBox="0 0 1000 1287.52"><defs><style>.cls-1{fill:#fff;}.cls-2{fill:#c69c6d;}.cls-3{filter:url(#drop-shadow-4);}</style><filter id="drop-shadow-4" filterUnits="userSpaceOnUse"><feOffset dx="1" dy="1"/><feGaussianBlur result="blur" stdDeviation="7"/><feFlood flood-color="#000" flood-opacity=".59"/><feComposite in2="blur" operator="in"/><feComposite in="SourceGraphic"/></filter></defs><g class="cls-3"><polygon class="cls-2" points="128 858.32 240.1 378.53 296.16 287.06 381.57 149.84 442.96 108.26 512.36 25.1 595.1 112.42 661.83 170.63 680.51 249.63 752.58 361.9 781.94 441.71 811.3 536.53 867.35 694.54 936.75 1325.34 86.42 1264.75 128 858.32"/><path class="cls-1" d="M680.51,249.63l-18.68-79-66.73-58.21-82.74-87.32-69.4,83.16-61.39,41.58-85.41,137.21s63.97,31.45,99.04,13.28c35.07-18.17,72.3-27.25,93.14-7.27s83.67-9.08,86.59-25.43c2.92-16.35,63.91,57.97,84.75,19.98l20.84-37.99Z"/></g></svg>