<?xml version="1.0" encoding="UTF-8"?><svg id="Layer_1" xmlns="http://www.w3.org/2000/svg" xmlns:xlink="http://www.w3.org/1999/xlink" viewBox="0 0 1000 1287.52"><defs><style>.cls-1{fill:#fff;}.cls-2{fill:#736357;}.cls-3{filter:url(#drop-shadow-2);}</style><filter id="drop-shadow-2" filterUnits="userSpaceOnUse"><feOffset dx="1" dy="1"/><feGaussianBlur result="blur" stdDeviation="7"/><feFlood flood-color="#000" flood-opacity=".59"/><feComposite in2="blur" operator="in"/><feComposite in="SourceGraphic"/></filter></defs><g class="cls-3"><polygon class="cls-2" points="28.71 1107.32 160.04 469.69 225.71 348.13 325.77 165.77 397.7 110.52 480.1 51.16 575.94 116.04 654.11 193.4 676 298.39 760.43 447.59 794.83 553.66 829.22 679.68 894.89 889.66 976.19 1287.52 41.22 1287.52 28.71 1107.32"/><path class="cls-1" d="M676,298.39l-21.89-104.99-78.18-77.36-95.83-64.88-82.41,59.35-71.92,55.26-100.06,182.35s74.95,41.8,116.03,17.65c41.08-24.14,84.7-36.21,109.11-9.66,24.41,26.56,98.02-12.07,101.45-33.8s74.88,77.04,99.29,26.56l24.41-50.49Z"/></g></svg>