<?xml version="1.0" encoding="UTF-8"?><svg id="Layer_1" xmlns="http://www.w3.org/2000/svg" xmlns:xlink="http://www.w3.org/1999/xlink" viewBox="0 0 1000 1287.52"><defs><style>.cls-1{fill:#fff;}.cls-2{fill:#8c6239;}.cls-3{filter:url(#drop-shadow-8);}</style><filter id="drop-shadow-8" filterUnits="userSpaceOnUse"><feOffset dx="7" dy="7"/><feGaussianBlur result="blur" stdDeviation="5"/><feFlood flood-color="#000" flood-opacity=".75"/><feComposite in2="blur" operator="in"/><feComposite in="SourceGraphic"/></filter></defs><g class="cls-3"><polygon class="cls-2" points="53.17 989.39 117.27 771.82 182.16 618.57 213.04 474.8 247.14 364.54 267.81 329.03 408.44 87.33 457.17 6.24 582.59 130.49 656.16 207.06 717.97 323.83 759.18 407.88 860.74 690.17 941.19 911.07 1000 1286.39 272.31 1269.99 0 1286.39 53.17 989.39"/><path class="cls-1" d="M345.99,403.5c52.67,30.1,100.88-105.26,134.01-89.22s43.06,38.43,74.66-6.53c31.6-44.96,101.5-100.69,101.5-100.69l-73.57-76.57L457.17,6.24l-164.69,280.39s20.2,97.83,53.51,116.86Z"/></g></svg>